<?xml version="1.0" encoding="UTF-8"?>
<svg xmlns="http://www.w3.org/2000/svg" xmlns:xlink="http://www.w3.org/1999/xlink" width="96px" height="96px" viewBox="0 0 96 96" version="1.1">
<g id="surface121451">
<path style=" stroke:none;fill-rule:evenodd;fill:rgb(7.843137%,57.647059%,96.470588%);fill-opacity:1;" d="M 68.78125 23.046875 C 76.425781 22.421875 78 20 78 20 L 76 26 C 76 26 77.230469 23.480469 81.046875 25.292969 C 84.859375 27.109375 88 32 88 32 L 86.285156 34.824219 L 90 40 L 87.851562 41.449219 C 88.007812 41.925781 88.152344 42.402344 88.28125 42.890625 C 89.429688 43.632812 92.304688 44.542969 94 46 C 93.90625 48.875 90.972656 49.402344 89.144531 49.589844 C 89.125 53.992188 87.964844 58.332031 85.863281 62.386719 C 85.675781 66.285156 86.285156 70.824219 86.285156 70.824219 L 83.140625 70.824219 C 83.140625 70.824219 82.859375 69.777344 79.996094 72.945312 C 77.132812 76.109375 74.757812 76.121094 74.757812 76.121094 C 74.757812 76.121094 74.828125 78.460938 72.660156 81.414062 C 70.496094 84.367188 66.375 83.53125 66.375 83.53125 L 63.230469 86.707031 C 63.230469 86.707031 60.730469 87.148438 55.898438 86.707031 C 50.085938 88.738281 41.230469 87.765625 41.230469 87.765625 C 41.230469 87.765625 32.398438 84.097656 31.800781 87.765625 C 29.710938 84.800781 25.515625 83.53125 25.515625 83.53125 C 25.515625 83.53125 25.570312 86.003906 24.464844 85.648438 C 19.839844 81.945312 19.394531 77.820312 18.179688 79.292969 C 14.617188 77.242188 13.460938 73.078125 13.101562 71 C 12.867188 70.683594 12.640625 70.363281 12.421875 70.039062 C 11.882812 70.320312 10.816406 70.863281 8.75 71.882812 C 9.152344 67.65625 8.230469 63.539062 3.511719 59.175781 C -1.210938 54.8125 6.652344 46.46875 6.652344 46.46875 C 6.652344 46.46875 5.90625 46.960938 2.460938 42.234375 C 11.667969 41.503906 11.890625 39.058594 11.890625 39.058594 C 11.890625 39.058594 12.480469 38.640625 6.652344 38 C 8.347656 34.714844 16.082031 32.707031 16.082031 32.707031 C 16.082031 32.707031 12.933594 32.09375 12.9375 29.53125 C 13.640625 31.046875 19.332031 30.808594 21.519531 30.65625 C 27.109375 26.230469 34.15625 22.882812 42.121094 21.242188 C 51.675781 19.273438 60.992188 20.09375 68.78125 23.046875 Z M 68.78125 23.046875 "/>
<path style=" stroke:none;fill-rule:evenodd;fill:rgb(7.843137%,57.647059%,96.470588%);fill-opacity:1;" d="M 32.96875 10.058594 C 24.703125 10.058594 18 16.761719 18 25.03125 C 18 33.296875 24.703125 40 32.96875 40 C 41.238281 40 47.941406 33.296875 47.941406 25.03125 C 47.941406 16.761719 41.238281 10.058594 32.96875 10.058594 Z M 32.96875 10.058594 "/>
<path style=" stroke:none;fill-rule:evenodd;fill:rgb(7.843137%,57.647059%,96.470588%);fill-opacity:1;" d="M 55 8 C 46.714844 8 40 14.714844 40 23 C 40 31.285156 46.714844 38 55 38 C 63.285156 38 70 31.285156 70 23 C 70 14.714844 63.285156 8 55 8 Z M 55 8 "/>
<path style=" stroke:none;fill-rule:evenodd;fill:rgb(100%,95.294118%,87.45098%);fill-opacity:1;" d="M 33 14 C 26.925781 14 22 18.925781 22 25 C 22 31.074219 26.925781 36 33 36 C 39.074219 36 44 31.074219 44 25 C 44 18.925781 39.074219 14 33 14 Z M 33 14 "/>
<path style=" stroke:none;fill-rule:evenodd;fill:rgb(100%,95.294118%,87.45098%);fill-opacity:1;" d="M 55 12 C 48.925781 12 44 16.925781 44 23 C 44 29.074219 48.925781 34 55 34 C 61.074219 34 66 29.074219 66 23 C 66 16.925781 61.074219 12 55 12 Z M 55 12 "/>
<path style=" stroke:none;fill-rule:evenodd;fill:rgb(38.039216%,38.039216%,38.039216%);fill-opacity:1;" d="M 52 18 C 49.789062 18 48 19.789062 48 22 C 48 24.210938 49.789062 26 52 26 C 54.210938 26 56 24.210938 56 22 C 56 19.789062 54.210938 18 52 18 Z M 36 24 C 33.789062 24 32 25.789062 32 28 C 32 30.210938 33.789062 32 36 32 C 38.210938 32 40 30.210938 40 28 C 40 25.789062 38.210938 24 36 24 Z M 36 24 "/>
<path style=" stroke:none;fill-rule:evenodd;fill:rgb(5.098039%,26.27451%,64.313725%);fill-opacity:1;" d="M 79.570312 34.765625 C 78.886719 33.894531 77.628906 33.753906 76.765625 34.429688 C 75.425781 35.480469 74.085938 36.441406 72.738281 37.363281 C 73.460938 37.714844 74 38 74 38 C 74.480469 38.910156 67.71875 42.261719 66.230469 42.085938 C 67.042969 42.402344 69.878906 43.539062 69.855469 43.554688 C 68.609375 44.574219 65.109375 45.121094 63.777344 44.808594 C 62.816406 44.585938 61.898438 44.289062 60.691406 44.148438 C 60.425781 44.199219 63.523438 47.550781 63.386719 47.589844 C 58.707031 48.941406 56 46 56 46 L 56 52 C 56 52 50.535156 51.539062 48.144531 48.191406 C 48.09375 48.203125 48.039062 48.214844 47.984375 48.226562 C 48.019531 51.074219 44.921875 55.414062 44 56 C 44.195312 54.464844 43.5625 51.488281 42.296875 49.902344 C 41.542969 51.933594 40.535156 54.148438 38.042969 56 C 37.808594 55.820312 38 52 38 52 C 38 52 36.328125 54.164062 34.03125 55.128906 C 33.871094 51.019531 33.960938 50.199219 33.992188 50.042969 C 33.949219 50.042969 33.90625 50.042969 33.863281 50.046875 C 33.308594 50.238281 31.199219 51.144531 30 54 C 28.761719 53.039062 28.289062 50.761719 28.007812 50.015625 C 27.996094 50.015625 27.988281 50.015625 27.980469 50.015625 C 27.691406 50.03125 27.15625 52.582031 24 54 C 23.621094 53.675781 23.742188 50.289062 19.992188 49.261719 C 20 49.253906 20.027344 49.238281 20.035156 49.226562 C 16.65625 48.695312 14.667969 48.113281 14.589844 48.089844 C 13.535156 47.777344 12.414062 48.359375 12.089844 49.410156 C 11.765625 50.464844 12.355469 51.585938 13.410156 51.910156 C 13.746094 52.015625 16.457031 53.417969 20 54 C 23.5625 60.921875 34 76 54 74 C 74.957031 71.902344 74.6875 49.6875 74 42 C 75.613281 40.910156 77.628906 38.839844 79.234375 37.570312 C 80.105469 36.886719 80.253906 35.628906 79.570312 34.765625 Z M 79.570312 34.765625 "/>
<path style=" stroke:none;fill-rule:evenodd;fill:rgb(5.098039%,26.27451%,64.313725%);fill-opacity:1;" d="M 66.230469 42.085938 C 66.09375 42.03125 65.996094 41.996094 66 42 C 66.046875 42.046875 66.128906 42.074219 66.230469 42.085938 Z M 66.230469 42.085938 "/>
</g>
</svg>
